<?xml version="1.0" standalone="no"?>
<!DOCTYPE svg PUBLIC "-//W3C//DTD SVG 20010904//EN"
 "http://www.w3.org/TR/2001/REC-SVG-20010904/DTD/svg10.dtd">
<svg version="1.0" xmlns="http://www.w3.org/2000/svg"
 width="504.000000pt" height="504.000000pt" viewBox="0 0 504.000000 504.000000"
 preserveAspectRatio="xMidYMid meet">
<metadata>
Created by potrace 1.11, written by Peter Selinger 2001-2013
</metadata>
<g transform="translate(0.000000,504.000000) scale(0.100000,-0.100000)"
fill="#000000" stroke="none">
<path d="M1886 4979 c-21 -5 -66 -28 -100 -52 -39 -27 -82 -47 -118 -55 -33
-8 -72 -26 -94 -43 -20 -16 -45 -29 -55 -29 -10 0 -25 -13 -34 -29 -9 -19 -28
-34 -52 -42 -20 -6 -59 -24 -87 -38 -41 -21 -51 -31 -51 -51 0 -14 -10 -38
-22 -54 -13 -16 -23 -32 -23 -37 0 -4 -16 -17 -35 -29 -29 -18 -38 -20 -51 -9
-27 22 -81 11 -171 -38 -86 -46 -120 -75 -165 -140 -13 -18 -33 -35 -45 -38
-98 -24 -193 -147 -193 -249 0 -77 -35 -172 -134 -361 -14 -27 -26 -66 -27
-85 -1 -40 14 -122 30 -162 9 -23 6 -30 -22 -60 -18 -19 -39 -48 -49 -65 -9
-18 -36 -44 -60 -59 -23 -16 -72 -51 -107 -78 -35 -27 -78 -57 -95 -65 -43
-22 -63 -70 -77 -181 l-12 -95 41 -86 c42 -87 144 -219 169 -219 7 0 13 -4 13
-10 0 -5 -16 -10 -36 -10 -20 0 -54 -5 -75 -12 l-39 -11 0 -94 c0 -88 -1 -94
-23 -104 -52 -23 -84 -128 -65 -207 7 -30 28 -62 73 -110 74 -80 114 -145 155
-251 25 -64 39 -85 78 -116 26 -21 66 -62 89 -91 23 -29 56 -58 73 -66 l30
-13 -6 -71 c-5 -60 -3 -76 15 -112 11 -23 21 -50 21 -61 0 -24 22 -109 44
-171 13 -35 14 -50 5 -72 -16 -38 -7 -63 46 -135 37 -51 58 -69 113 -97 37
-18 84 -39 105 -46 35 -11 59 -29 149 -112 20 -19 40 -28 62 -28 37 0 56 -15
56 -45 0 -30 23 -47 110 -85 48 -21 100 -35 145 -39 l70 -6 5 -35 c9 -50 49
-90 91 -90 23 0 52 -12 86 -35 28 -19 69 -38 90 -43 21 -5 62 -27 92 -49 47
-36 61 -41 123 -46 51 -4 78 -2 98 8 90 46 305 83 408 69 63 -8 116 9 165 52
30 28 45 34 81 34 25 0 48 6 55 14 7 8 34 17 60 21 46 6 57 2 173 -54 68 -34
133 -61 144 -61 10 0 36 -11 56 -25 51 -34 106 -33 208 6 72 28 87 38 132 93
77 92 102 154 103 251 0 44 -4 97 -9 119 -12 53 0 46 75 -49 97 -122 104 -125
176 -70 49 37 58 41 68 26 3 -6 24 -13 48 -16 32 -5 54 -1 97 18 80 36 117 87
146 202 30 123 48 162 93 210 47 50 81 106 81 134 0 12 11 37 24 54 52 69 63
125 40 204 -5 17 1 24 30 38 20 10 46 31 57 47 11 15 42 39 67 52 26 13 76 54
111 90 48 51 70 66 91 66 31 0 50 21 90 100 35 70 39 93 30 192 l-9 92 39 42
c31 34 40 52 45 98 9 67 0 134 -20 156 -13 14 -13 28 2 108 19 107 16 115 -56
136 -41 11 -47 17 -55 50 -9 33 -7 39 19 66 16 17 40 33 52 37 30 7 45 35 54
98 4 28 13 75 19 105 7 30 10 76 7 102 -8 63 -58 161 -91 176 -20 9 -26 19
-26 45 0 39 -29 81 -91 134 -93 79 -177 170 -183 200 -4 17 -19 46 -33 64 -14
19 -33 52 -43 74 -10 22 -32 49 -49 60 -18 11 -44 42 -58 68 -18 32 -38 53
-58 61 -37 16 -61 67 -101 221 -37 143 -44 191 -35 240 8 41 6 48 -28 95 -39
55 -131 126 -183 141 -18 5 -77 10 -131 10 -105 0 -164 -17 -201 -60 -48 -53
-76 -1 -35 65 23 38 23 93 -1 105 -8 4 -44 21 -80 37 -60 26 -67 33 -78 69
-18 59 -84 111 -160 124 -53 10 -68 8 -138 -14 -74 -24 -80 -24 -124 -9 -78
26 -145 27 -180 2 -16 -12 -38 -20 -47 -19 -10 2 -32 -1 -49 -5 -18 -4 -65 -8
-105 -10 -85 -3 -140 -29 -165 -78 -14 -26 -17 -28 -33 -16 -81 59 -129 88
-148 88 -12 0 -43 13 -70 30 -26 16 -85 39 -131 51 -54 13 -91 29 -107 45 -21
21 -33 24 -87 23 -35 -1 -80 -5 -102 -10z"/>
</g>
</svg>
