# Created by Chimera 1.11.2_b41376

mtllib stmvProtein.mtl

# Number of vertices: 118
v 83.9143 94.8004 28.0746
v 85.8367 89.8775 27.7473
v 88.8552 94.5571 25.1718
v 99.5141 90.0151 29.6146
v 92.947 86.7641 28.1036
v 96.2525 93.9347 25.6035
v 84.1749 100.076 31.9071
v 89.7373 103.343 32.9114
v 88.1296 100.502 27.4779
v 97.3171 103.078 34.1776
v 94.9104 100.377 27.2145
v 104.96 95.4494 33.4458
v 102.033 93.5603 30.2448
v 103.408 100.551 34.9883
v 101.976 98.6814 29.7405
v 88.1267 82.7376 31.6929
v 95.9334 80.9638 33.5759
v 90.844 78.791 33.3394
v 92.3606 82.4577 30.5353
v 80.181 92.6423 34.835
v 84.4871 85.5312 32.0784
v 102.794 86.5845 37.4779
v 99.7275 84.8797 34.2965
v 101.962 89.4413 33.4022
v 81.7762 98.7491 38.7032
v 87.145 102.613 39.4714
v 94.8345 102.425 42.1539
v 104.814 93.5902 39.8501
v 101.964 98.5921 41.2858
v 72.0747 82.7818 39.1283
v 75.2574 77.7869 37.4455
v 76.9189 82.227 35.7011
v 81.9003 75.2568 36.5444
v 83.6395 82.4258 33.5517
v 89.9014 72.798 38.3553
v 100.32 77.5735 41.8731
v 96.9832 75.9015 39.2946
v 99.3215 79.5874 38.0384
v 72.6372 90.2766 41.5113
v 76.9176 94.4986 42.5831
v 77.501 89.0416 36.6631
v 103.781 83.8813 44.4972
v 78.5278 96.6267 44.4217
v 86.3842 100.671 47.673
v 104.513 90.8085 47.2481
v 100.104 96.9845 49.6272
v 90.4321 101.047 49.3853
v 97.0202 100.542 48.6107
v 94.1521 101.985 49.4211
v 93.8111 102.386 45.4979
v 94.2872 99.5383 51.45
v 70.4529 72.9683 43.4225
v 73.6545 68.7891 43.8762
v 74.243 73.2713 40.3739
v 71.5203 70.6698 46.985
v 80.1434 66.0833 42.8597
v 82.8289 71.285 38.8308
v 91.5766 68.3622 47.0131
v 87.1064 67.2094 43.7107
v 89.3848 69.8353 41.774
v 64.9288 81.6734 46.008
v 66.6929 76.9597 46.3343
v 67.777 79.9666 43.4293
v 100.465 75.6119 48.7516
v 95.9898 71.227 45.2117
v 96.4345 72.7256 51.7478
v 63.8547 87.8506 48.797
v 68.4743 88.3889 44.348
v 101.959 82.6594 51.4898
v 97.399 79.7323 55.2328
v 65.4859 93.8204 52.5275
v 70.2196 96.5878 52.9794
v 68.5534 94.3536 48.7587
v 77.9194 97.6019 53.4759
v 75.0347 95.3588 46.0497
v 84.6269 96.7784 54.8062
v 91.5243 95.4085 55.0896
v 92.5491 87.6061 58.3185
v 101.63 89.2741 53.3626
v 98.5116 91.4991 55.1686
v 98.8808 87.1096 55.8039
v 74.1021 68.4346 51.6029
v 79.2636 64.1356 49.3025
v 79.8219 66.2852 55.667
v 89.1397 66.6982 52.7697
v 86.3699 64.8734 49.5991
v 85.5811 65.3939 53.7784
v 62.6572 79.3139 51.4179
v 65.6683 74.5961 52.2554
v 64.5324 77.3724 56.4736
v 70.9255 71.0481 51.7575
v 69.9706 74.4477 59.3784
v 93.3482 72.7031 55.5796
v 86.3875 70.2293 59.3895
v 62.416 85.5543 55.0094
v 66.425 83.2818 61.1647
v 93.622 80.0542 58.6268
v 90.1834 84.5864 60.2291
v 88.0645 78.7584 61.9652
v 64.3588 91.2528 58.2587
v 67.8045 94.835 58.7599
v 67.811 90.6916 61.9545
v 74.2968 94.8472 60.4954
v 74.4971 88.0707 64.2894
v 86.9212 88.1244 60.4293
v 82.3404 92.1112 60.2065
v 82.4749 86.3288 63.1258
v 73.8229 71.9495 59.4796
v 82.2483 72.8419 62.559
v 79.0074 70.1254 59.9753
v 77.7522 72.6568 62.9983
v 69.182 80.0231 63.2991
v 72.1621 74.5019 61.9792
v 72.6692 83.9312 65.2539
v 73.6347 78.7526 65.9707
v 83.5283 78.8613 64.6536
v 79.243 82.4702 65.7964
v 79.6833 77.1891 66.1361

# Number of normals: 118
vn -0.621957 0.17701 -0.762783
vn -0.432601 -0.161021 -0.88709
vn -0.277641 0.093816 -0.956093
vn 0.654276 -0.34489 -0.673033
vn 0.109653 -0.411153 -0.904947
vn 0.355814 -0.0282387 -0.93413
vn -0.646848 0.613394 -0.453139
vn -0.295169 0.897604 -0.327386
vn -0.398816 0.587487 -0.704135
vn 0.301947 0.934004 -0.190957
vn 0.148336 0.556723 -0.817347
vn 0.956641 -0.062355 -0.284517
vn 0.829605 -0.21624 -0.514777
vn 0.874823 0.468805 -0.122096
vn 0.798076 0.184128 -0.573735
vn -0.106129 -0.410967 -0.905452
vn 0.328671 -0.526575 -0.784025
vn 0.0547587 -0.531415 -0.84534
vn 0.037631 -0.512506 -0.857858
vn -0.67874 0.30925 -0.666091
vn -0.333955 -0.216398 -0.917412
vn 0.917229 -0.253537 -0.307261
vn 0.766076 -0.361599 -0.531389
vn 0.867123 -0.277074 -0.413917
vn -0.683765 0.675512 -0.275952
vn -0.332394 0.942093 -0.0444383
vn 0.213306 0.96145 0.173537
vn 0.996969 0.0552696 -0.0547629
vn 0.875072 0.472786 0.103548
vn -0.653412 0.0516344 -0.75524
vn -0.498761 -0.200292 -0.84328
vn -0.472799 -0.0351121 -0.880471
vn -0.175399 -0.413298 -0.893544
vn -0.269519 -0.27487 -0.922934
vn 0.191271 -0.717721 -0.669547
vn 0.840305 -0.465748 -0.277428
vn 0.649801 -0.577855 -0.493804
vn 0.761426 -0.460028 -0.456732
vn -0.660152 0.441833 -0.60744
vn -0.638774 0.634138 -0.435703
vn -0.623091 0.27316 -0.732899
vn 0.960131 -0.279253 -0.0128909
vn -0.579915 0.769349 -0.267957
vn -0.176277 0.923274 0.34131
vn 0.969458 0.0366198 0.242506
vn 0.633786 0.597486 0.491249
vn -0.000940116 0.873008 0.487704
vn 0.307174 0.847476 0.43293
vn 0.151714 0.872838 0.463828
vn 0.149774 0.936708 0.316459
vn 0.182163 0.800721 0.570669
vn -0.761148 -0.473786 -0.442923
vn -0.641542 -0.671771 -0.370335
vn -0.604281 -0.486094 -0.631314
vn -0.73715 -0.620902 -0.266629
vn -0.123277 -0.864742 -0.486852
vn -0.0316219 -0.60538 -0.795308
vn 0.518352 -0.836866 -0.175973
vn 0.319584 -0.850141 -0.418481
vn 0.319403 -0.812907 -0.486994
vn -0.851511 -0.0589801 -0.521009
vn -0.838546 -0.296801 -0.456892
vn -0.79314 -0.123858 -0.596312
vn 0.89848 -0.415634 0.141356
vn 0.695377 -0.702079 -0.153415
vn 0.803422 -0.516378 0.296425
vn -0.890072 0.25487 -0.377907
vn -0.75245 0.319273 -0.576093
vn 0.881927 -0.192516 0.430281
vn 0.765539 -0.219369 0.604836
vn -0.72326 0.672961 -0.154978
vn -0.461466 0.88218 -0.0938508
vn -0.622623 0.688234 -0.372389
vn -0.063568 0.976244 0.207137
vn -0.583358 0.740321 -0.334093
vn 0.0964106 0.754338 0.649369
vn 0.189512 0.593552 0.782165
vn 0.406474 0.235152 0.882883
vn 0.70393 0.0465555 0.708742
vn 0.511238 0.202928 0.835138
vn 0.589958 -0.00646511 0.807408
vn -0.578626 -0.811745 0.0791323
vn -0.20274 -0.978997 -0.0214874
vn -0.189661 -0.857426 0.478381
vn 0.493688 -0.854736 0.160307
vn 0.349607 -0.933606 -0.0784546
vn 0.304784 -0.930593 0.202742
vn -0.954163 -0.23837 -0.180979
vn -0.834339 -0.543298 -0.0933023
vn -0.889712 -0.410024 0.20073
vn -0.698997 -0.7151 -0.00601321
vn -0.556371 -0.627792 0.54436
vn 0.662186 -0.490924 0.56613
vn 0.270895 -0.614211 0.741189
vn -0.990945 0.113635 0.0715251
vn -0.772164 -0.0611158 0.632477
vn 0.612255 -0.100996 0.784184
vn 0.46956 0.141425 0.8715
vn 0.482963 -0.123792 0.866846
vn -0.818186 0.470641 0.330255
vn -0.555436 0.752378 0.354145
vn -0.581211 0.471112 0.663511
vn -0.0277967 0.81811 0.57439
vn -0.0438575 0.321618 0.945853
vn 0.42075 0.386971 0.820502
vn 0.338716 0.599547 0.725131
vn 0.39297 0.341754 0.853685
vn -0.378983 -0.716895 0.585179
vn 0.0597242 -0.537737 0.840994
vn -0.159082 -0.706685 0.689412
vn -0.146839 -0.604338 0.78308
vn -0.509489 -0.283358 0.812484
vn -0.377869 -0.586293 0.716572
vn -0.25449 -0.036319 0.966393
vn -0.249941 -0.29624 0.92183
vn 0.269015 -0.180865 0.946002
vn 0.119314 -0.0277679 0.992468
vn 0.0576763 -0.310456 0.948836

g 1a34.pdb_surfaces_1.A
usemtl m1

# Number of triangles: 232
f 1//1 3//3 2//2
f 1//1 9//9 3//3
f 1//1 7//7 9//9
f 5//5 3//3 6//6
f 5//5 2//2 3//3
f 11//11 6//6 3//3
f 9//9 11//11 3//3
f 4//4 5//5 6//6
f 6//6 13//13 4//4
f 15//15 13//13 6//6
f 11//11 15//15 6//6
f 8//8 9//9 7//7
f 8//8 11//11 9//9
f 8//8 10//10 11//11
f 10//10 15//15 11//11
f 10//10 14//14 15//15
f 12//12 13//13 15//15
f 14//14 12//12 15//15
f 20//20 2//2 21//21
f 20//20 1//1 2//2
f 7//7 1//1 20//20
f 7//7 20//20 25//25
f 19//19 16//16 5//5
f 5//5 16//16 21//21
f 5//5 21//21 2//2
f 23//23 4//4 24//24
f 23//23 5//5 4//4
f 17//17 5//5 23//23
f 19//19 5//5 17//17
f 24//24 4//4 13//13
f 26//26 7//7 25//25
f 26//26 8//8 7//7
f 27//27 10//10 8//8
f 27//27 8//8 26//26
f 29//29 14//14 10//10
f 29//29 10//10 27//27
f 12//12 24//24 13//13
f 22//22 24//24 12//12
f 28//28 22//22 12//12
f 14//14 28//28 12//12
f 14//14 29//29 28//28
f 16//16 19//19 18//18
f 17//17 18//18 19//19
f 22//22 23//23 24//24
f 18//18 34//34 16//16
f 33//33 34//34 18//18
f 35//35 33//33 18//18
f 21//21 16//16 34//34
f 37//37 17//17 38//38
f 18//18 17//17 37//37
f 35//35 18//18 37//37
f 38//38 17//17 23//23
f 20//20 21//21 41//41
f 41//41 21//21 34//34
f 41//41 34//34 32//32
f 41//41 40//40 20//20
f 20//20 40//40 43//43
f 20//20 43//43 25//25
f 22//22 38//38 23//23
f 36//36 38//38 22//22
f 42//42 36//36 22//22
f 42//42 22//22 28//28
f 45//45 42//42 28//28
f 44//44 25//25 43//43
f 44//44 26//26 25//25
f 47//47 50//50 44//44
f 44//44 50//50 27//27
f 44//44 27//27 26//26
f 50//50 48//48 27//27
f 27//27 48//48 46//46
f 27//27 46//46 29//29
f 29//29 45//45 28//28
f 29//29 46//46 45//45
f 30//30 32//32 31//31
f 30//30 41//41 32//32
f 30//30 39//39 41//41
f 33//33 32//32 34//34
f 33//33 31//31 32//32
f 36//36 37//37 38//38
f 40//40 41//41 39//39
f 49//49 50//50 47//47
f 49//49 48//48 50//50
f 63//63 52//52 62//62
f 63//63 54//54 52//52
f 30//30 54//54 63//63
f 31//31 54//54 30//30
f 39//39 30//30 68//68
f 30//30 63//63 68//68
f 31//31 33//33 54//54
f 33//33 57//57 54//54
f 33//33 35//35 57//57
f 35//35 60//60 57//57
f 58//58 60//60 65//65
f 65//65 60//60 35//35
f 65//65 35//35 37//37
f 36//36 65//65 37//37
f 36//36 64//64 65//65
f 64//64 36//36 42//42
f 69//69 64//64 42//42
f 40//40 39//39 75//75
f 75//75 39//39 68//68
f 75//75 68//68 73//73
f 43//43 40//40 75//75
f 69//69 42//42 45//45
f 79//79 69//69 45//45
f 74//74 43//43 75//75
f 44//44 43//43 74//74
f 76//76 44//44 74//74
f 51//51 47//47 77//77
f 77//77 47//47 44//44
f 77//77 44//44 76//76
f 46//46 79//79 45//45
f 46//46 80//80 79//79
f 48//48 51//51 46//46
f 46//46 51//51 77//77
f 46//46 77//77 80//80
f 49//49 47//47 51//51
f 51//51 48//48 49//49
f 52//52 54//54 53//53
f 56//56 54//54 57//57
f 56//56 53//53 54//54
f 59//59 57//57 60//60
f 59//59 56//56 57//57
f 58//58 59//59 60//60
f 61//61 63//63 62//62
f 61//61 68//68 63//63
f 61//61 67//67 68//68
f 67//67 73//73 68//68
f 67//67 71//71 73//73
f 72//72 73//73 71//71
f 72//72 75//75 73//73
f 72//72 74//74 75//75
f 52//52 53//53 55//55
f 52//52 55//55 62//62
f 62//62 55//55 91//91
f 62//62 91//91 89//89
f 53//53 82//82 55//55
f 83//83 82//82 53//53
f 56//56 83//83 53//53
f 55//55 82//82 91//91
f 56//56 59//59 86//86
f 83//83 56//56 86//86
f 58//58 86//86 59//59
f 58//58 85//85 86//86
f 65//65 66//66 58//58
f 58//58 66//66 93//93
f 58//58 93//93 85//85
f 88//88 62//62 89//89
f 88//88 61//61 62//62
f 67//67 61//61 88//88
f 67//67 88//88 95//95
f 66//66 65//65 64//64
f 70//70 64//64 69//69
f 70//70 66//66 64//64
f 66//66 70//70 93//93
f 70//70 97//97 93//93
f 71//71 67//67 95//95
f 71//71 95//95 100//100
f 81//81 69//69 79//79
f 81//81 70//70 69//69
f 98//98 97//97 78//78
f 78//78 97//97 70//70
f 78//78 70//70 81//81
f 101//101 71//71 100//100
f 101//101 72//72 71//71
f 103//103 74//74 72//72
f 103//103 72//72 101//101
f 106//106 76//76 74//74
f 106//106 74//74 103//103
f 77//77 105//105 78//78
f 106//106 105//105 77//77
f 76//76 106//106 77//77
f 78//78 80//80 77//77
f 78//78 81//81 80//80
f 98//98 78//78 105//105
f 81//81 79//79 80//80
f 82//82 83//83 84//84
f 92//92 91//91 108//108
f 91//91 82//82 108//108
f 108//108 82//82 110//110
f 110//110 82//82 84//84
f 87//87 83//83 86//86
f 87//87 84//84 83//83
f 109//109 110//110 94//94
f 94//94 110//110 84//84
f 94//94 84//84 87//87
f 87//87 86//86 85//85
f 94//94 85//85 93//93
f 94//94 87//87 85//85
f 88//88 89//89 90//90
f 95//95 90//90 96//96
f 95//95 88//88 90//90
f 92//92 89//89 91//91
f 92//92 90//90 89//89
f 113//113 112//112 92//92
f 92//92 112//112 96//96
f 92//92 96//96 90//90
f 92//92 108//108 113//113
f 99//99 93//93 97//97
f 99//99 94//94 93//93
f 94//94 99//99 109//109
f 99//99 116//116 109//109
f 100//100 96//96 102//102
f 100//100 95//95 96//96
f 112//112 114//114 96//96
f 96//96 114//114 104//104
f 96//96 104//104 102//102
f 99//99 97//97 98//98
f 117//117 116//116 107//107
f 116//116 99//99 107//107
f 107//107 99//99 105//105
f 105//105 99//99 98//98
f 101//101 100//100 102//102
f 102//102 103//103 101//101
f 102//102 104//104 103//103
f 104//104 106//106 103//103
f 104//104 107//107 106//106
f 107//107 104//104 117//117
f 104//104 114//114 117//117
f 107//107 105//105 106//106
f 108//108 110//110 111//111
f 111//111 113//113 108//108
f 115//115 113//113 111//111
f 118//118 115//115 111//111
f 111//111 110//110 109//109
f 118//118 109//109 116//116
f 118//118 111//111 109//109
f 112//112 113//113 115//115
f 114//114 112//112 115//115
f 115//115 117//117 114//114
f 115//115 118//118 117//117
f 118//118 116//116 117//117

